<svg width="18" height="22" viewBox="0 0 18 22" fill="none" xmlns="http://www.w3.org/2000/svg">
<path d="M16.7695 11.6453C16.039 10.7923 15.7071 10.0531 15.7071 8.79716V8.37013C15.7071 6.73354 15.3304 5.67907 14.5115 4.62459C13.2493 2.98699 11.1244 2 9.04423 2H8.95577C6.91935 2 4.86106 2.94167 3.577 4.5128C2.71333 5.58842 2.29293 6.68822 2.29293 8.37013V8.79716C2.29293 10.0531 1.98284 10.7923 1.23049 11.6453C0.676907 12.2738 0.5 13.0815 0.5 13.9557C0.5 14.8309 0.787226 15.6598 1.36367 16.3336C2.11602 17.1413 3.17846 17.6569 4.26375 17.7466C5.83505 17.9258 7.40634 17.9933 9.0005 17.9933C10.5937 17.9933 12.165 17.8805 13.7372 17.7466C14.8215 17.6569 15.884 17.1413 16.6363 16.3336C17.2118 15.6598 17.5 14.8309 17.5 13.9557C17.5 13.0815 17.3231 12.2738 16.7695 11.6453" fill="#D9D9D9"/>
<path opacity="0.4" d="M11.0088 19.2284C10.5088 19.1216 7.46266 19.1216 6.96275 19.2284C6.53539 19.3271 6.07324 19.5567 6.07324 20.0603C6.09809 20.5407 6.37935 20.9647 6.76895 21.2336L6.76795 21.2346C7.27184 21.6274 7.86319 21.8771 8.48236 21.9668C8.81232 22.0121 9.14825 22.0101 9.49014 21.9668C10.1083 21.8771 10.6997 21.6274 11.2036 21.2346L11.2026 21.2336C11.5922 20.9647 11.8734 20.5407 11.8983 20.0603C11.8983 19.5567 11.4361 19.3271 11.0088 19.2284Z" fill="#D9D9D9"/>
<circle cx="13" cy="3" r="3" fill="#09D3FF"/>
</svg>
